<svg width="35" height="48" viewBox="0 0 35 48" fill="none" xmlns="http://www.w3.org/2000/svg">
<path fill-rule="evenodd" clip-rule="evenodd" d="M3 0C1.34314 0 0 1.34315 0 3V8H4V4H21V26H4V21H0V27C0 28.6569 1.34314 30 3 30H22C23.6569 30 25 28.6569 25 27V3C25 1.34315 23.6569 0 22 0H3Z" transform="translate(6 9)" fill="white"/>
<path d="M19.7071 0.707107C20.0976 0.316583 20.0976 -0.316583 19.7071 -0.707107L13.3431 -7.07107C12.9526 -7.46159 12.3195 -7.46159 11.9289 -7.07107C11.5384 -6.68054 11.5384 -6.04738 11.9289 -5.65685L17.5858 0L11.9289 5.65685C11.5384 6.04738 11.5384 6.68054 11.9289 7.07107C12.3195 7.46159 12.9526 7.46159 13.3431 7.07107L19.7071 0.707107ZM0 1H19V-1H0V1Z" transform="translate(4 24)" fill="white"/>
</svg>
